<svg width="21" height="21" viewBox="0 0 21 21" fill="none" xmlns="http://www.w3.org/2000/svg">
<path d="M10.5 19.25C10.2958 19.25 10.1208 19.1917 9.975 19.075C9.82917 18.9583 9.71979 18.8052 9.64688 18.6156C9.36979 17.799 9.01979 17.0333 8.59687 16.3187C8.18854 15.6042 7.6125 14.7656 6.86875 13.8031C6.125 12.8406 5.51979 11.9219 5.05312 11.0469C4.60104 10.1719 4.375 9.11458 4.375 7.875C4.375 6.16875 4.96562 4.725 6.14687 3.54375C7.34271 2.34792 8.79375 1.75 10.5 1.75C12.2063 1.75 13.65 2.34792 14.8313 3.54375C16.0271 4.725 16.625 6.16875 16.625 7.875C16.625 9.20208 16.3698 10.3104 15.8594 11.2C15.3635 12.075 14.7875 12.9427 14.1313 13.8031C13.3438 14.8531 12.7458 15.7281 12.3375 16.4281C11.9438 17.1135 11.6156 17.8427 11.3531 18.6156C11.2802 18.8198 11.1635 18.9802 11.0031 19.0969C10.8573 19.199 10.6896 19.25 10.5 19.25ZM10.5 10.0625C11.1125 10.0625 11.6302 9.85104 12.0531 9.42812C12.476 9.00521 12.6875 8.4875 12.6875 7.875C12.6875 7.2625 12.476 6.74479 12.0531 6.32187C11.6302 5.89896 11.1125 5.6875 10.5 5.6875C9.8875 5.6875 9.36979 5.89896 8.94688 6.32187C8.52396 6.74479 8.3125 7.2625 8.3125 7.875C8.3125 8.4875 8.52396 9.00521 8.94688 9.42812C9.36979 9.85104 9.8875 10.0625 10.5 10.0625Z" fill="#FFEA00"/>
</svg>
