<svg width="25" height="25" viewBox="0 0 25 25" fill="none" xmlns="http://www.w3.org/2000/svg">
<g clip-path="url(#clip0_2051_742)">
<path d="M18.2292 6.77051H18.2396M7.29171 2.08301H17.7084C20.5849 2.08301 22.9167 4.41486 22.9167 7.29134V17.708C22.9167 20.5845 20.5849 22.9163 17.7084 22.9163H7.29171C4.41522 22.9163 2.08337 20.5845 2.08337 17.708V7.29134C2.08337 4.41486 4.41522 2.08301 7.29171 2.08301ZM16.6667 11.8434C16.7953 12.7103 16.6472 13.5957 16.2435 14.3736C15.8399 15.1516 15.2012 15.7824 14.4184 16.1764C13.6356 16.5704 12.7484 16.7076 11.8832 16.5684C11.0179 16.4291 10.2185 16.0206 9.59883 15.4009C8.97912 14.7812 8.57059 13.9818 8.43136 13.1166C8.29213 12.2513 8.42928 11.3641 8.8233 10.5813C9.21732 9.79848 9.84815 9.15982 10.6261 8.75618C11.404 8.35253 12.2894 8.20445 13.1563 8.33301C14.0406 8.46414 14.8593 8.8762 15.4914 9.50833C16.1235 10.1405 16.5356 10.9591 16.6667 11.8434Z" stroke="white" stroke-width="2.5" stroke-linecap="round" stroke-linejoin="round"/>
</g>
<defs>
<clipPath id="clip0_2051_742">
<rect width="25" height="25" fill="white"/>
</clipPath>
</defs>
</svg>
