<svg width="18" height="18" viewBox="0 0 18 18" fill="none" xmlns="http://www.w3.org/2000/svg">
<path d="M14.25 6C13.625 6 13.0938 5.78125 12.6562 5.34375C12.2188 4.90625 12 4.375 12 3.75C12 3.125 12.2188 2.59375 12.6562 2.15625C13.0938 1.71875 13.625 1.5 14.25 1.5C14.875 1.5 15.4062 1.71875 15.8438 2.15625C16.2812 2.59375 16.5 3.125 16.5 3.75C16.5 4.375 16.2812 4.90625 15.8438 5.34375C15.4062 5.78125 14.875 6 14.25 6ZM3 15C2.5875 15 2.23438 14.8531 1.94063 14.5594C1.64688 14.2656 1.5 13.9125 1.5 13.5V4.5C1.5 4.0875 1.64688 3.73438 1.94063 3.44063C2.23438 3.14688 2.5875 3 3 3H10.575C10.525 3.25 10.5 3.5 10.5 3.75C10.5 4 10.525 4.25 10.575 4.5C10.6625 4.9 10.8063 5.27188 11.0063 5.61563C11.2063 5.95938 11.45 6.2625 11.7375 6.525L9 8.25L3 4.5V6L9 9.75L12.9563 7.275C13.1688 7.35 13.3813 7.40625 13.5938 7.44375C13.8062 7.48125 14.025 7.5 14.25 7.5C14.65 7.5 15.0438 7.4375 15.4313 7.3125C15.8188 7.1875 16.175 7 16.5 6.75V13.5C16.5 13.9125 16.3531 14.2656 16.0594 14.5594C15.7656 14.8531 15.4125 15 15 15H3Z" fill="#FFEA00"/>
</svg>
