<svg width="50" height="32" viewBox="0 0 50 32" fill="none" xmlns="http://www.w3.org/2000/svg">
<path d="M40.5107 21.6662H33.8178C33.4837 21.6662 33.2218 21.3961 33.2579 21.0865L33.6953 17.2091C33.7082 17.0903 33.8217 16.9955 33.9494 16.9955H36.5876C36.9372 16.9955 37.2584 17.1251 37.479 17.3543L40.9209 20.9317C41.1815 21.2029 40.9235 21.6662 40.5107 21.6662ZM43.7114 22.1834L38.475 16.7399C38.0157 16.2622 37.3488 15.9934 36.6212 15.9934H32.9122C32.5974 15.9934 32.2968 16.0918 32.0479 16.2586L32.2362 14.5845C32.3226 13.8189 31.6776 13.1528 30.8507 13.1528H4.71779C4.21595 13.1528 3.80829 13.5321 3.80829 13.9989C3.80829 14.4669 4.21595 14.8461 4.71779 14.8461H17.8133C18.3164 14.8461 18.7241 15.2254 18.7241 15.6922C18.7241 16.1602 18.3164 16.5382 17.8133 16.5382H6.56259C6.05946 16.5382 5.65309 16.9175 5.65309 17.3855C5.65309 17.8535 6.05946 18.2315 6.56259 18.2315H16.9115C17.4146 18.2315 17.8223 18.6108 17.8223 19.0788C17.8223 19.5456 17.4146 19.9249 16.9115 19.9249H2.35052C1.84739 19.9249 1.43973 20.3041 1.43973 20.7721C1.43973 21.2389 1.84739 21.6182 2.35052 21.6182H12.6607C13.1626 21.6182 13.5702 21.9974 13.5702 22.4654C13.5702 22.9322 13.1626 23.3115 12.6607 23.3115H6.28522C5.78209 23.3115 5.37443 23.6907 5.37443 24.1575C5.37443 24.6255 5.78209 25.0048 6.28522 25.0048H8.90535L8.64862 27.2765C8.56219 28.0422 9.20722 28.7082 10.0342 28.7082H14.7365C14.7365 26.5253 16.6458 24.7492 18.9924 24.7492C21.339 24.7492 23.2496 26.5253 23.2496 28.7082H32.1962C32.1962 26.5253 34.1055 24.7492 36.4522 24.7492C38.8001 24.7492 40.7094 26.5253 40.7094 28.7082H41.815C42.8986 28.7082 43.87 27.891 43.9836 26.8829L44.3112 23.9871C44.3874 23.3103 44.1719 22.6622 43.7114 22.1834Z" fill="#00125E"/>
<mask id="mask0_3081_161" style="mask-type:luminance" maskUnits="userSpaceOnUse" x="32" y="25" width="9" height="7">
<path d="M32.8685 25.3984H40.0193V32H32.8685V25.3984Z" fill="white"/>
</mask>
<g mask="url(#mask0_3081_161)">
<path d="M36.4523 30.1268C35.6125 30.1268 34.9288 29.4908 34.9288 28.7083C34.9288 27.9271 35.6125 27.291 36.4523 27.291C37.2935 27.291 37.9772 27.9271 37.9772 28.7083C37.9772 29.4908 37.2935 30.1268 36.4523 30.1268ZM36.4523 25.4165C34.5017 25.4165 32.915 26.8938 32.915 28.7083C32.915 30.524 34.5017 32.0001 36.4523 32.0001C38.4042 32.0001 39.991 30.524 39.991 28.7083C39.991 26.8938 38.4042 25.4165 36.4523 25.4165Z" fill="#00125E"/>
</g>
<mask id="mask1_3081_161" style="mask-type:luminance" maskUnits="userSpaceOnUse" x="15" y="25" width="8" height="7">
<path d="M15.4512 25.3984H22.5531V32H15.4512V25.3984Z" fill="white"/>
</mask>
<g mask="url(#mask1_3081_161)">
<path d="M18.9924 30.1268C18.1525 30.1268 17.4688 29.4908 17.4688 28.7083C17.4688 27.9271 18.1525 27.291 18.9924 27.291C19.8322 27.291 20.5159 27.9271 20.5159 28.7083C20.5159 29.4908 19.8322 30.1268 18.9924 30.1268ZM18.9924 25.4165C17.0418 25.4165 15.4537 26.8938 15.4537 28.7083C15.4537 30.524 17.0418 32.0001 18.9924 32.0001C20.9429 32.0001 22.531 30.524 22.531 28.7083C22.531 26.8938 20.9429 25.4165 18.9924 25.4165Z" fill="#00125E"/>
</g>
<mask id="mask2_3081_161" style="mask-type:luminance" maskUnits="userSpaceOnUse" x="0" y="13" width="4" height="2">
<path d="M3.05176e-05 13.082H3.13747V14.9253H3.05176e-05V13.082Z" fill="white"/>
</mask>
<g mask="url(#mask2_3081_161)">
<path d="M2.88075 13.9989C2.88075 13.5321 2.47309 13.1528 1.96996 13.1528H0.909528C0.407692 13.1528 3.05176e-05 13.5321 3.05176e-05 13.9989C3.05176e-05 14.4669 0.407692 14.8461 0.909528 14.8461H1.96996C2.47309 14.8461 2.88075 14.4669 2.88075 13.9989Z" fill="#00125E"/>
</g>
<path d="M1.91321 17.3853C1.91321 17.8534 2.32087 18.2314 2.82271 18.2314H3.88314C4.38627 18.2314 4.79393 17.8534 4.79393 17.3853C4.79393 16.9173 4.38627 16.5381 3.88314 16.5381H2.82271C2.32087 16.5381 1.91321 16.9173 1.91321 17.3853Z" fill="#00125E"/>
<mask id="mask3_3081_161" style="mask-type:luminance" maskUnits="userSpaceOnUse" x="24" y="0" width="26" height="23">
<path d="M24.4713 0H49.5386V22.1402H24.4713V0Z" fill="white"/>
</mask>
<g mask="url(#mask3_3081_161)">
<path d="M35.6875 0C31.0859 0 27.0092 2.08693 24.4897 5.29833C26.9873 3.02419 30.4073 1.6225 34.1782 1.6225C41.8295 1.6225 48.0322 7.39246 48.0322 14.5089C48.0322 17.3471 47.0466 19.9692 45.3759 22.0982C47.9458 19.7592 49.5416 16.4962 49.5416 12.8876C49.5416 5.76996 43.3389 0 35.6875 0Z" fill="#00125E"/>
</g>
<path d="M35.7555 14.0807C35.7555 14.5475 35.3478 14.9267 34.8447 14.9267C34.3416 14.9267 33.9352 14.5475 33.9352 14.0807C33.9352 13.6126 34.3416 13.2334 34.8447 13.2334C35.3478 13.2334 35.7555 13.6126 35.7555 14.0807Z" fill="#00125E"/>
<path d="M43.0676 10.0793C42.9193 9.81529 42.5697 9.71448 42.2858 9.85129L35.5104 13.1491C35.8342 13.3495 36.0471 13.6915 36.0471 14.0804C36.0471 14.0876 36.0458 14.096 36.0458 14.1032L42.8225 10.8066C43.1063 10.6685 43.216 10.3433 43.0676 10.0793ZM33.623 8.72202C33.3108 8.78322 33.1109 9.06884 33.1767 9.36046L34.0604 13.2331C34.2707 13.0639 34.5454 12.9619 34.8447 12.9619C34.966 12.9619 35.0821 12.9787 35.1931 13.0099L34.3094 9.13605C34.2423 8.84563 33.9352 8.65962 33.623 8.72202Z" fill="#00125E"/>
<mask id="mask4_3081_161" style="mask-type:luminance" maskUnits="userSpaceOnUse" x="14" y="31" width="6" height="1">
<path d="M14.2991 31.3794H19.1936V31.9998H14.2991V31.3794Z" fill="white"/>
</mask>
<g mask="url(#mask4_3081_161)">
<path d="M19.1485 31.4023V32H14.3301L19.1485 31.4023Z" fill="#00125E"/>
</g>
<mask id="mask5_3081_161" style="mask-type:luminance" maskUnits="userSpaceOnUse" x="32" y="31" width="5" height="1">
<path d="M32.0531 31.3794H36.2277V31.9998H32.0531V31.3794Z" fill="white"/>
</mask>
<g mask="url(#mask5_3081_161)">
<path d="M36.2134 31.4023V32H32.053L36.2134 31.4023Z" fill="#00125E"/>
</g>
<path d="M25.386 16.2471C27.718 16.2471 29.6151 18.0129 29.6151 20.1832C29.6151 22.0703 28.1813 23.6506 26.2743 24.0317V29.0581C26.2743 29.5146 25.8767 29.8844 25.386 29.8844C24.8953 29.8844 24.4977 29.5146 24.4977 29.0581V24.0317C22.5907 23.6506 21.1569 22.0703 21.1569 20.1832C21.1569 18.0129 23.054 16.2471 25.386 16.2471ZM25.1352 22.4534C25.2151 22.432 25.2995 22.4198 25.386 22.4198C25.4725 22.4198 25.5569 22.432 25.6368 22.4534C26.8713 22.3362 27.8385 21.3631 27.8385 20.1832C27.8385 18.9248 26.7376 17.9008 25.386 17.9008C24.0343 17.9008 22.9335 18.9248 22.9335 20.1832C22.9335 21.3631 23.9007 22.3362 25.1352 22.4534Z" fill="#00125E"/>
</svg>
