<svg width="36" height="42" viewBox="0 0 36 42" fill="none" xmlns="http://www.w3.org/2000/svg">
<mask id="mask0_3081_110" style="mask-type:luminance" maskUnits="userSpaceOnUse" x="0" y="0" width="36" height="42">
<path d="M0 0H35.1134V42H0V0Z" fill="white"/>
</mask>
<g mask="url(#mask0_3081_110)">
<path fill-rule="evenodd" clip-rule="evenodd" d="M20.3482 1.09718L21.5585 2.30031C22.4255 3.16218 23.6191 3.52968 24.882 3.32187L25.9931 3.13921C27.0623 2.96421 28.0585 3.1939 28.9076 3.81187C29.7568 4.43093 30.222 5.26546 30.271 6.25531L30.35 7.88609C30.4062 9.05422 31.0616 10.0353 32.1762 10.6161L33.1545 11.1269C34.0981 11.6191 34.6985 12.3792 34.9126 13.3505C35.1278 14.3217 34.8958 15.2339 34.2344 16.0203L33.1449 17.3164C32.364 18.245 32.175 19.3803 32.6187 20.4774L33.0086 21.442C33.3841 22.3717 33.3088 23.3058 32.7873 24.1764C32.2671 25.0459 31.4455 25.6081 30.3847 25.8236L28.6374 26.178C27.384 26.4317 26.4392 27.1908 26.0039 28.2911L25.6223 29.2591C25.254 30.191 24.5376 30.8625 23.5258 31.2235C22.514 31.5844 21.4879 31.5352 20.5228 31.078L18.9345 30.3255C17.796 29.7852 16.5366 29.8125 15.4268 30.402L14.4521 30.9183C13.5133 31.417 12.4907 31.5111 11.461 31.195C10.4313 30.8789 9.6802 30.2402 9.26401 29.3247L8.57753 27.8164C8.08599 26.7358 7.10171 26.0194 5.83639 25.8203L4.72534 25.6453C3.65495 25.4769 2.80463 24.9508 2.23894 24.1042C1.67325 23.2588 1.54887 22.3291 1.87537 21.3841L2.41235 19.8277C2.79745 18.7109 2.54989 17.5855 1.72109 16.6919L0.992748 15.9066C0.29072 15.1508 0.0120614 14.2495 0.174712 13.2695C0.337362 12.2895 0.898268 11.5053 1.81437 10.9716L3.32367 10.0944C4.40602 9.46547 5.00878 8.45703 5.004 7.28781L5.00041 6.25968C4.99682 5.26875 5.4178 4.41453 6.23344 3.75937C7.04909 3.10421 8.03217 2.83187 9.10973 2.95984L10.8845 3.17202C12.157 3.32515 13.3303 2.90624 14.1519 2.00718L14.8743 1.21749C15.5691 0.456242 16.4948 0.0482726 17.5807 0.0242102C18.6678 0.00124125 19.6138 0.367648 20.3482 1.09718ZM27.14 29.223L26.9534 29.6955C26.4476 30.9785 25.4334 31.9278 24.0413 32.4244C22.654 32.9199 21.1925 32.8488 19.871 32.222L18.2815 31.4695C18.1895 31.4258 18.0962 31.3875 18.0029 31.3558L21.2164 36.4297L24.5197 41.6447C24.6704 41.8821 24.9466 42.0067 25.2444 41.9706C25.5434 41.9356 25.7754 41.7497 25.8532 41.485L27.0611 37.3769L31.5675 38.4783C31.8569 38.5483 32.1499 38.4575 32.3329 38.241C32.5159 38.0233 32.5362 37.7422 32.3855 37.5049L29.0823 32.2899L27.14 29.223ZM16.0893 31.5428L15.1649 32.0339C13.872 32.7186 12.4261 32.8531 11.0089 32.4178C9.59289 31.9825 8.52969 31.078 7.95682 29.8191L7.42821 28.6586L5.12838 32.2899L1.82514 37.5049C1.67445 37.7422 1.69478 38.0233 1.87776 38.241C2.06074 38.4575 2.35375 38.5483 2.64437 38.4783L7.15075 37.3769L8.35747 41.485C8.43521 41.7497 8.66722 41.9356 8.96621 41.9706C9.26401 42.0067 9.54147 41.8821 9.69096 41.6447L12.9942 36.4297L16.0893 31.5428ZM15.8789 19.8145C16.2723 19.8419 16.6287 19.8933 16.7531 19.9688C17.2674 20.3592 18.1021 20.5769 19.2574 20.6206L23.5163 20.5747C23.9552 20.4577 24.2578 20.0902 24.2578 19.6723C24.2578 19.2556 23.9552 18.8881 23.5163 18.7711C24.0233 18.7624 24.4647 18.4495 24.5986 18.0033C24.7314 17.5559 24.5256 17.0834 24.0915 16.8417C24.6309 16.8023 25.0471 16.3922 25.0471 15.9C25.0471 15.4067 24.6309 14.9966 24.0915 14.9583C24.6596 14.9014 25.0746 14.4409 25.0232 13.9214C24.9717 13.403 24.4742 13.0169 23.9037 13.0541C22.8657 13.0508 21.8288 13.0508 20.7907 13.0541C21.2966 11.7897 21.342 10.5122 20.8624 9.52015C20.5754 8.92844 19.792 8.34328 19.5158 9.32C18.9848 11.8203 18.0268 13.4773 16.734 13.8919L15.8789 13.8984V19.8145ZM11.2278 20.4642H13.7811C14.1555 20.4642 14.4628 20.1842 14.4628 19.843V13.613C14.4628 13.2717 14.1555 12.9917 13.7811 12.9917H11.2278C10.8534 12.9917 10.5461 13.2717 10.5461 13.613V19.843C10.5461 20.1842 10.8534 20.4642 11.2278 20.4642ZM17.5604 6.24437C11.8054 6.24437 7.13998 10.4969 7.13998 15.7425C7.13998 20.9881 11.8054 25.2406 17.5604 25.2406C23.3141 25.2406 27.9796 20.9881 27.9796 15.7425C27.9796 10.4969 23.3141 6.24437 17.5604 6.24437Z" fill="#00125E"/>
</g>
</svg>
