<svg width="37" height="43" viewBox="0 0 37 43" fill="none" xmlns="http://www.w3.org/2000/svg">
<path d="M18.4063 42.6236C17.2037 42.3875 16.0311 42.0525 14.8875 41.6166C13.7439 41.1807 12.6472 40.6518 11.5975 40.0298C10.5487 39.4068 9.56092 38.7005 8.63703 37.91C7.71215 37.1195 6.86417 36.2565 6.0931 35.321C5.31403 34.3836 4.62287 33.3874 4.0176 32.3334C3.41332 31.2794 2.90494 30.1823 2.49143 29.0431C2.07893 27.9039 1.76831 26.7372 1.55956 25.5461C1.35081 24.354 1.24693 23.153 1.24793 21.9433V8.4088L18.4063 5.01465H19.0265L36.1709 8.4088V21.9433C36.1729 23.153 36.071 24.353 35.8632 25.5451C35.6555 26.7362 35.3459 27.9019 34.9344 29.0421C34.5229 30.1813 34.0155 31.2784 33.4122 32.3324C32.8089 33.3874 32.1178 34.3836 31.3407 35.321C30.5676 36.2555 29.7186 37.1166 28.7938 37.9071C27.8689 38.6966 26.8821 39.4028 25.8323 40.0249C24.7836 40.6469 23.6869 41.1768 22.5443 41.6127C21.4017 42.0496 20.2291 42.3856 19.0265 42.6236L19.0125 42.5521L18.4063 42.6236ZM11.9041 20.9598L16.7343 25.7371L25.5157 17.023L27.765 19.2338L16.7343 30.1725L9.65381 23.1707L11.9041 20.9598ZM8.52916 33.3384C9.17239 34.1132 9.87554 34.8293 10.6406 35.4866C11.4057 36.1448 12.2217 36.7355 13.0887 37.2586C13.9546 37.7817 14.8595 38.2303 15.8034 38.6035C16.7473 38.9777 17.7151 39.2716 18.7099 39.4861C19.7037 39.2726 20.6725 38.9797 21.6164 38.6055C22.5603 38.2323 23.4652 37.7836 24.3321 37.2606C25.1991 36.7375 26.0141 36.1468 26.7792 35.4885C27.5443 34.8303 28.2474 34.1132 28.8896 33.3384C29.5508 32.5391 30.1371 31.6898 30.6505 30.7916C31.1639 29.8933 31.5954 28.9588 31.945 27.9881C32.2955 27.0183 32.5582 26.0251 32.735 25.0103C32.9128 23.9954 32.9997 22.9738 32.9987 21.9433V10.9909L18.7099 8.15216L4.42011 10.9909V21.9433C4.41911 22.9738 4.50701 23.9954 4.68379 25.0103C4.86058 26.0251 5.12426 27.0183 5.47384 27.9881C5.82342 28.9588 6.2549 29.8933 6.76828 30.7916C7.28166 31.6898 7.86896 32.5391 8.52916 33.3384Z" fill="#00125E"/>
</svg>
