<svg width="48" height="39" viewBox="0 0 48 39" fill="none" xmlns="http://www.w3.org/2000/svg">
<path d="M10.6861 28.6911C10.4853 28.8054 10.3807 29.0227 10.425 29.2365C10.4693 29.4503 10.6503 29.6173 10.8831 29.655C14.2386 30.1993 17.3381 30.4703 20.1592 30.4703C22.3215 30.4703 24.3201 30.3113 26.1401 29.9912C30.5399 29.2171 33.8043 27.5248 35.841 24.96C37.3396 23.0756 38.1006 20.8883 38.0452 18.6345C37.9923 16.4609 37.1869 14.3363 35.7216 12.4897C34.5641 11.0318 32.9903 9.82663 31.046 8.9073C29.0388 7.95825 27.1264 7.54775 25.8766 7.37052C22.3314 6.86855 17.2149 7.26761 13.4936 9.89409C11.1109 11.5749 9.71326 13.8721 9.34014 16.7193C9.04707 18.9455 9.15297 21.8647 12.5873 24.6787C13.0565 25.0641 13.2658 25.4643 13.2252 25.9045C13.1156 27.0662 11.3547 28.3103 10.6861 28.6911ZM13.3311 23.8921C10.3093 21.4165 10.1824 18.9421 10.457 16.8473C10.792 14.2918 12.0431 12.2336 14.1734 10.7288C17.6151 8.30013 22.3868 7.93766 25.7042 8.40762C27.124 8.60886 31.9757 9.54305 34.8128 13.1129C36.1402 14.7834 36.868 16.7021 36.9172 18.6574C36.9665 20.6767 36.2818 22.64 34.9335 24.3369C33.0716 26.6809 30.0411 28.236 25.9295 28.9598C22.1799 29.6184 17.6311 29.5727 12.3965 28.8237C13.2338 28.1662 14.2386 27.1486 14.347 25.9971C14.4209 25.2127 14.0798 24.5049 13.3311 23.8921Z" fill="#00125E"/>
<path d="M16.4465 21.5291C17.8614 21.3862 19.025 20.2028 19.041 18.8889C19.0558 17.5591 17.8724 16.3459 16.4563 16.2396C15.0205 16.1344 13.6377 17.2001 13.4948 18.523C13.3655 19.7191 13.8458 20.4383 14.2718 20.8305C14.7656 21.2867 15.4552 21.544 16.1596 21.544C16.2544 21.5429 16.3504 21.5383 16.4465 21.5291ZM15.0661 20.0861C14.7053 19.7534 14.5501 19.2491 14.6166 18.6282C14.6979 17.877 15.5476 17.2252 16.3652 17.2858C17.1841 17.3476 17.9217 18.1057 17.9118 18.8787C17.9032 19.6516 17.1607 20.4029 16.3246 20.4863C15.8653 20.5321 15.3838 20.3788 15.0661 20.0861Z" fill="#00125E"/>
<path d="M23.5455 21.419C23.6403 21.419 23.7364 21.4156 23.8324 21.4041C25.2485 21.2623 26.411 20.0777 26.4257 18.7651C26.4405 17.4341 25.2571 16.2209 23.841 16.1157C22.4065 16.0094 21.0224 17.0751 20.8795 18.398C20.7515 19.5952 21.2317 20.3144 21.6565 20.7066C22.1516 21.1629 22.8411 21.419 23.5455 21.419ZM22.0026 18.5032C22.0838 17.752 22.9335 17.1002 23.7524 17.162C24.57 17.2226 25.3076 17.9818 25.2978 18.7536C25.2892 19.5266 24.5479 20.2778 23.7105 20.3625C23.2512 20.407 22.7685 20.255 22.4508 19.9623C22.0912 19.6284 21.9361 19.1241 22.0026 18.5032Z" fill="#00125E"/>
<path d="M30.9314 21.419C31.0275 21.419 31.1223 21.4156 31.2183 21.4041C32.6344 21.2623 33.7969 20.0777 33.8117 18.7651C33.8264 17.4341 32.6431 16.2209 31.227 16.1157C29.7948 16.0094 28.4083 17.0751 28.2655 18.398C28.1374 19.5952 28.6176 20.3144 29.0425 20.7066C29.5375 21.1629 30.2271 21.419 30.9314 21.419ZM29.3885 18.5032C29.4661 17.7851 30.2468 17.1574 31.0312 17.1574C31.0669 17.1574 31.1026 17.1585 31.1383 17.1608C31.9559 17.2214 32.6936 17.9807 32.6837 18.7536C32.6751 19.5255 31.9338 20.2778 31.0964 20.3613C30.6359 20.407 30.1544 20.2538 29.8367 19.9611C29.4771 19.6284 29.322 19.1241 29.3885 18.5032Z" fill="#00125E"/>
<mask id="mask0_3081_590" style="mask-type:luminance" maskUnits="userSpaceOnUse" x="0" y="0" width="48" height="39">
<path d="M0 0H47.2856V38.2H0V0Z" fill="white"/>
</mask>
<g mask="url(#mask0_3081_590)">
<path d="M43.2368 14.8571H42.8526C41.4537 10.0547 38.7606 6.13956 35.0554 3.52909C31.6358 1.11872 27.5414 -0.10133 23.2229 0.0027228C18.961 0.103345 14.7964 1.54065 11.4938 4.04935C7.99052 6.71013 5.57576 10.4423 4.49459 14.8571H4.04883C1.82 14.8571 0.00738525 16.5426 0.00738525 18.6145V23.4032C0.00738525 25.4099 1.70671 27.0531 3.83579 27.156C4.13749 29.675 5.08935 31.756 6.67293 33.3443C8.19986 34.8753 10.2908 35.8781 12.7252 36.2509C13.0232 37.3669 14.1106 38.1959 15.4011 38.1959H19.126C20.648 38.1959 21.8844 37.0456 21.8844 35.6311C21.8844 34.2167 20.6468 33.0664 19.126 33.0664H15.4011C14.0453 33.0664 12.9161 33.98 12.6858 35.1806C8.32546 34.434 5.54005 31.5376 4.96991 27.1628H5.8011C6.60151 27.1628 7.25415 26.5568 7.25415 25.8113V16.2064C7.25415 15.462 6.60274 14.856 5.8011 14.856H5.65333C6.70495 10.7728 8.96209 7.3253 12.2081 4.86005C15.3173 2.49771 19.2393 1.14502 23.2524 1.05011C27.3173 0.95292 31.1617 2.09979 34.3756 4.3638C37.8088 6.78331 40.3307 10.4057 41.684 14.856H41.4291C40.6582 14.856 40.0314 15.4391 40.0314 16.1549V25.8616C40.0314 26.5785 40.6582 27.1617 41.4291 27.1617H43.2368C45.4656 27.1617 47.2782 25.4763 47.2782 23.4032V18.6145C47.2782 16.5426 45.4656 14.8571 43.2368 14.8571ZM15.4011 34.1138H19.126C20.025 34.1138 20.7564 34.7941 20.7564 35.63C20.7564 36.467 20.025 37.1462 19.126 37.1462H15.4011C14.5021 37.1462 13.7707 36.4658 13.7707 35.63C13.7707 34.7941 14.5021 34.1138 15.4011 34.1138ZM6.12619 16.2064V25.8101C6.12619 25.9771 5.98088 26.1131 5.8011 26.1131H4.04883C2.44185 26.1131 1.13534 24.8977 1.13534 23.4032V18.6145C1.13534 17.1211 2.44185 15.9057 4.04883 15.9057H5.8011C5.98088 15.9057 6.12619 16.0406 6.12619 16.2064ZM46.1502 23.4032C46.1502 24.8977 44.8437 26.1131 43.2368 26.1131H41.4291C41.2801 26.1131 41.1594 25.9999 41.1594 25.8616V16.1549C41.1594 16.0177 41.2801 15.9045 41.4291 15.9045H43.2368C44.8437 15.9045 46.1502 17.12 46.1502 18.6133V23.4032Z" fill="#00125E"/>
</g>
</svg>
